<svg xmlns="http://www.w3.org/2000/svg" version="1.1" xmlns:xlink="http://www.w3.org/1999/xlink" xmlns:svgjs="http://svgjs.dev/svgjs" width="1500" height="1500" viewBox="0 0 1500 1500"><rect width="1500" height="1500" fill="#ffffff"></rect><g transform="matrix(0.6666666666666666,0,0,0.6666666666666666,249.7297331431186,596.3149897460302)"><svg viewBox="0 0 396 121" data-background-color="#ffffff" preserveAspectRatio="xMidYMid meet" height="458" width="1500" xmlns="http://www.w3.org/2000/svg" xmlns:xlink="http://www.w3.org/1999/xlink"><g id="tight-bounds" transform="matrix(1,0,0,1,0.25087417938641465,0.40355755697706286)"><svg viewBox="0 0 395.52 120.19288488604589" height="120.19288488604589" width="395.52"><g><svg viewBox="0 0 656.7604578818684 199.58013276674305" height="120.19288488604589" width="395.52"><g><rect width="8.476313295585344" height="173.29678677285938" x="230.57484276537917" y="13.141672996941836" fill="#000000" opacity="1" stroke-width="0" stroke="transparent" fill-opacity="1" class="rect-yte-0" data-fill-palette-color="primary" rx="1%" id="yte-0" data-palette-color="#3d3839"></rect></g><g transform="matrix(1,0,0,1,261.24045788186856,27.583071894680117)"><svg viewBox="0 0 395.5199999999999 144.41398897738281" height="144.41398897738281" width="395.5199999999999"><g id="textblocktransform"><svg viewBox="0 0 395.5199999999999 144.41398897738281" height="144.41398897738281" width="395.5199999999999" id="textblock"><g><svg viewBox="0 0 395.5199999999999 93.99219666931006" height="93.99219666931006" width="395.5199999999999"><g transform="matrix(1,0,0,1,0,0)"><svg width="395.5199999999999" viewBox="4 -35 189.13 44.95" height="93.99219666931006" data-palette-color="#3d3839"><path d="M4 0L4-35 20.95-35Q24.85-35 27.23-32.8 29.6-30.6 29.6-27L29.6-27 29.6-21.85Q29.6-18 27.05-15.63 24.5-13.25 20.35-13.25L20.35-13.25 7.7-13.25 7.7 0 4 0ZM7.7-16.55L20.25-16.55Q22.8-16.55 24.35-18.03 25.9-19.5 25.9-21.95L25.9-21.95 25.9-27.1Q25.9-29.15 24.53-30.43 23.15-31.7 20.85-31.7L20.85-31.7 7.7-31.7 7.7-16.55ZM35 0L35-24.95 38.5-24.95 38.5-21.1Q39.5-22.85 41.52-23.95 43.55-25.05 45.75-25.05L45.75-25.05 47.95-25.05 47.95-21.8 45.75-21.8Q42.55-21.8 40.57-19.78 38.6-17.75 38.6-14.4L38.6-14.4 38.6 0 35 0ZM60.25 0.4Q56.05 0.4 53.5-2.2 50.95-4.8 50.95-9.05L50.95-9.05 50.95-15.9Q50.95-20.15 53.52-22.75 56.1-25.35 60.35-25.35L60.35-25.35 64.45-25.35Q68.7-25.35 71.27-22.75 73.85-20.15 73.85-15.9L73.85-15.9 73.85-9.05Q73.85-4.8 71.25-2.2 68.65 0.4 64.35 0.4L64.35 0.4 60.25 0.4ZM60.25-2.8L64.35-2.8Q67.05-2.8 68.65-4.53 70.25-6.25 70.25-9.05L70.25-9.05 70.25-15.9Q70.25-18.7 68.65-20.43 67.05-22.15 64.45-22.15L64.45-22.15 60.35-22.15Q57.75-22.15 56.15-20.43 54.55-18.7 54.55-15.9L54.55-15.9 54.55-9.05Q54.55-6.2 56.1-4.5 57.65-2.8 60.25-2.8L60.25-2.8ZM83.44-28.7Q82.24-28.7 81.49-29.45 80.74-30.2 80.74-31.4L80.74-31.4Q80.74-32.6 81.49-33.35 82.24-34.1 83.44-34.1L83.44-34.1Q84.64-34.1 85.39-33.35 86.14-32.6 86.14-31.4L86.14-31.4Q86.14-30.2 85.39-29.45 84.64-28.7 83.44-28.7L83.44-28.7ZM75.04 9.95L75.04 6.75 76.79 6.75Q79.39 6.75 80.52 5.35 81.64 3.95 81.64 0.75L81.64 0.75 81.64-24.95 85.24-24.95 85.24 0.5Q85.24 5.55 83.29 7.75 81.34 9.95 76.79 9.95L76.79 9.95 75.04 9.95ZM102.04 0.4Q97.84 0.4 95.29-2.08 92.74-4.55 92.74-8.65L92.74-8.65 92.74-15.8Q92.74-20.1 95.29-22.73 97.84-25.35 102.04-25.35L102.04-25.35 106.14-25.35Q110.14-25.35 112.59-22.8 115.04-20.25 115.04-16.05L115.04-16.05 115.04-11.65 96.34-11.65 96.34-8.65Q96.34-6.05 97.92-4.42 99.49-2.8 102.04-2.8L102.04-2.8 105.84-2.8Q108.34-2.8 109.89-4.17 111.44-5.55 111.44-7.85L111.44-7.85 114.94-7.85Q114.94-4.15 112.44-1.88 109.94 0.4 105.84 0.4L105.84 0.4 102.04 0.4ZM96.34-14.75L111.44-14.75 111.44-16.05Q111.44-18.8 109.99-20.48 108.54-22.15 106.14-22.15L106.14-22.15 102.04-22.15Q99.49-22.15 97.92-20.4 96.34-18.65 96.34-15.8L96.34-15.8 96.34-14.75ZM117.54 0L126.94-12.75 117.94-24.95 122.04-24.95 128.99-15.55 135.94-24.95 140.04-24.95 131.04-12.75 140.44 0 136.34 0 128.99-9.95 121.64 0 117.54 0ZM152.19 0.4Q148.74 0.4 146.59-1.95 144.44-4.3 144.44-8.1L144.44-8.1 144.44-24.95 148.03-24.95 148.03-8Q148.03-5.65 149.19-4.23 150.34-2.8 152.19-2.8L152.19-2.8 155.28-2.8Q157.59-2.8 159.53-4.65 161.49-6.5 162.03-9.3L162.03-9.3 162.03-24.95 165.63-24.95 165.63 0 162.13 0 162.13-3.8Q160.99-2 159.09-0.8 157.19 0.4 155.38 0.4L155.38 0.4 152.19 0.4ZM180.33 0.4Q176.53 0.4 174.23-1.75 171.93-3.9 171.93-7.4L171.93-7.4 175.43-7.4Q175.43-5.3 176.78-4 178.13-2.7 180.33-2.7L180.33-2.7 184.68-2.7Q186.83-2.7 188.18-3.58 189.53-4.45 189.53-5.85L189.53-5.85 189.53-7.55Q189.53-8.5 188.78-9.22 188.03-9.95 186.83-10.2L186.83-10.2 178.18-11.7Q175.58-12.15 174.01-13.68 172.43-15.2 172.43-17.25L172.43-17.25 172.43-18.9Q172.43-21.8 174.63-23.58 176.83-25.35 180.43-25.35L180.43-25.35 184.73-25.35Q188.23-25.35 190.38-23.38 192.53-21.4 192.53-18.15L192.53-18.15 189.03-18.15Q188.98-20 187.81-21.13 186.63-22.25 184.73-22.25L184.73-22.25 180.43-22.25Q178.43-22.25 177.23-21.33 176.03-20.4 176.03-18.9L176.03-18.9 176.03-17.45Q176.03-16.5 176.86-15.75 177.68-15 178.98-14.8L178.98-14.8 187.58-13.3Q190.08-12.85 191.61-11.35 193.13-9.85 193.13-7.75L193.13-7.75 193.13-5.75Q193.13-3 190.81-1.3 188.48 0.4 184.68 0.4L184.68 0.4 180.33 0.4Z" opacity="1" transform="matrix(1,0,0,1,0,0)" fill="#000000" class="wordmark-text-0" data-fill-palette-color="primary" id="text-0"></path></svg></g></svg></g><g transform="matrix(1,0,0,1,0,116.1814984902141)"><svg viewBox="0 0 232.20979199999994 28.232490487168693" height="28.232490487168693" width="232.20979199999994"><g transform="matrix(1,0,0,1,0,0)"><svg width="232.20979199999994" viewBox="0.5 -34.25 356.51 43.35" height="28.232490487168693" data-palette-color="#ffc604"><path d="M17.5-0.45L9.5-0.45 9.5-25.35 0.5-25.35 0.5-32.1 26.5-32.1 26.5-25.35 17.5-25.35 17.5-0.45ZM38.1-9.25L38-0.45 30-0.45 30-24.8 36.5-24.8 37.15-19.8 37.3-19.8Q37.75-22.6 39.45-23.83 41.15-25.05 44.5-25.05L44.5-25.05Q45.85-25.05 46.95-24.93 48.05-24.8 48.8-24.7L48.8-24.7 48.8-16.9 48.7-16.8Q47.9-17 46.87-17.15 45.85-17.3 44.55-17.3L44.55-17.3Q42.7-17.3 41.22-16.7 39.75-16.1 38.92-14.38 38.1-12.65 38.1-9.25L38.1-9.25 38.1-9.25ZM61.55-25.05L61.55-25.05Q66.34-25.05 69.3-24.05 72.25-23.05 73.62-20.38 75-17.7 75-12.65L75-12.65 75-0.45 67.75-0.45 67.5-2.75 67.34-2.75Q66.4-1.5 64.4-0.75 62.4 0 59.2 0L59.2 0Q50.55 0 50.55-8.1L50.55-8.1Q50.55-11.55 52.82-13.53 55.09-15.5 60-15.5L60-15.5 67.4-15.5Q67.05-17.6 65.59-18.32 64.15-19.05 60.65-19.05L60.65-19.05Q58.45-19.05 56.32-18.73 54.2-18.4 52.59-18L52.59-18 52.45-18.1 52.5-23.9Q53.5-24.2 55.05-24.48 56.59-24.75 58.32-24.9 60.05-25.05 61.55-25.05ZM61.25-5.9L61.25-5.9Q64.34-5.9 65.9-6.68 67.45-7.45 67.5-9.15L67.5-9.15 67.5-10.4 61.84-10.4Q59.65-10.4 58.77-9.78 57.9-9.15 57.9-8.1L57.9-8.1Q57.9-6.85 58.8-6.38 59.7-5.9 61.25-5.9ZM98.99-7.65L99.19-7.5 99.19-1Q97.94-0.5 95.49-0.25 93.04 0 90.29 0L90.29 0Q86.34 0 83.72-1.1 81.09-2.2 79.82-4.9 78.54-7.6 78.49-12.4L78.49-12.4Q78.49-17.35 79.87-20.1 81.24-22.85 83.89-23.95 86.54-25.05 90.24-25.05L90.24-25.05Q92.44-25.05 94.89-24.75 97.34-24.45 98.89-23.95L98.89-23.95 98.94-17.25 98.79-17.15Q97.29-17.45 95.59-17.6 93.89-17.75 92.24-17.75L92.24-17.75Q88.89-17.75 87.59-16.5 86.29-15.25 86.29-12.3L86.29-12.3Q86.29-10.05 86.84-8.95 87.39-7.85 88.69-7.5 89.99-7.15 92.24-7.15L92.24-7.15Q93.99-7.15 95.59-7.3 97.19-7.45 98.99-7.65L98.99-7.65ZM111.69-11.75L111.69-0.45 103.69-0.45 103.69-34.1 111.69-34.1 111.69-14.5 111.79-14.5 118.09-24.8 126.89-24.8 126.89-24.6 119.49-13.1 119.49-12.9 128.09-0.45 118.89-0.45 111.84-11.7 111.69-11.75ZM154.79-25.05L154.79-25.05Q159.59-25.05 162.54-24.05 165.49-23.05 166.86-20.38 168.24-17.7 168.24-12.65L168.24-12.65 168.24-0.45 160.99-0.45 160.74-2.75 160.59-2.75Q159.64-1.5 157.64-0.75 155.64 0 152.44 0L152.44 0Q143.79 0 143.79-8.1L143.79-8.1Q143.79-11.55 146.06-13.53 148.34-15.5 153.24-15.5L153.24-15.5 160.64-15.5Q160.29-17.6 158.84-18.32 157.39-19.05 153.89-19.05L153.89-19.05Q151.69-19.05 149.56-18.73 147.44-18.4 145.84-18L145.84-18 145.69-18.1 145.74-23.9Q146.74-24.2 148.29-24.48 149.84-24.75 151.56-24.9 153.29-25.05 154.79-25.05ZM154.49-5.9L154.49-5.9Q157.59-5.9 159.14-6.68 160.69-7.45 160.74-9.15L160.74-9.15 160.74-10.4 155.09-10.4Q152.89-10.4 152.01-9.78 151.14-9.15 151.14-8.1L151.14-8.1Q151.14-6.85 152.04-6.38 152.94-5.9 154.49-5.9ZM181.48-34.1L181.48-0.45 173.48-0.45 173.48-34.1 181.48-34.1ZM195.48-34.1L195.48-0.45 187.48-0.45 187.48-34.1 195.48-34.1ZM216.98-7.75L216.98-7.75 216.98-18.25 213.98-18.25 213.98-24.75 217.73-24.75 219.23-30.7 224.98-30.7 224.98-24.75 230.43-24.75 230.43-18.25 224.98-18.25 224.98-9.5Q224.98-8.1 225.33-7.58 225.68-7.05 226.93-7.05L226.93-7.05Q227.73-7.05 228.63-7.13 229.53-7.2 230.43-7.3L230.43-7.3 230.58-7.2 230.58-0.7Q228.18 0 224.23 0L224.23 0Q220.28 0 218.63-1.8 216.98-3.6 216.98-7.75ZM243.07-12.95L243.07-0.45 235.07-0.45 235.07-34.05 243.07-34.05 243.07-20.35 243.22-20.35Q243.92-22.6 245.8-23.83 247.67-25.05 250.72-25.05L250.72-25.05Q253.62-25.05 255.5-24.1 257.37-23.15 258.3-20.78 259.22-18.4 259.22-14.1L259.22-14.1 259.22-0.45 251.22-0.45 251.17-12.55Q251.17-15.35 250.32-16.55 249.47-17.75 247.12-17.75L247.12-17.75Q245.02-17.75 244.07-16.65 243.12-15.55 243.07-12.95L243.07-12.95ZM272.22-33.85L272.22-33.85Q272.37-32.05 272.37-30.85L272.37-30.85Q272.37-30.15 272.35-29.43 272.32-28.7 272.22-27.8L272.22-27.8Q271.17-27.6 270.17-27.5 269.17-27.4 268.17-27.4L268.17-27.4Q267.22-27.4 266.25-27.5 265.27-27.6 264.27-27.8L264.27-27.8Q264.17-28.65 264.12-29.38 264.07-30.1 264.07-30.8L264.07-30.8Q264.07-31.45 264.12-32.2 264.17-32.95 264.27-33.85L264.27-33.85Q265.27-34.1 266.3-34.18 267.32-34.25 268.32-34.25L268.32-34.25Q269.27-34.25 270.25-34.18 271.22-34.1 272.22-33.85ZM272.22-24.8L272.22-0.45 264.22-0.45 264.22-24.8 272.22-24.8ZM285.77-13L285.77-0.45 277.77-0.45 277.77-24.8 285.37-24.8 285.77-20.35 285.92-20.35Q286.62-22.6 288.42-23.83 290.22-25.05 293.42-25.05L293.42-25.05Q297.77-25.05 299.84-22.6 301.92-20.15 301.92-14.1L301.92-14.1 301.92-0.45 293.92-0.45 293.87-12.55Q293.87-15.35 293.02-16.55 292.17-17.75 289.82-17.75L289.82-17.75Q287.62-17.75 286.72-16.68 285.82-15.6 285.77-13L285.77-13ZM309.22-1.95L309.22-2.1Q307.56-2.8 306.81-3.9 306.06-5 306.06-6.55L306.06-6.55Q306.06-7.95 306.84-9 307.62-10.05 308.92-10.65L308.92-10.65 308.92-10.8Q307.67-11.8 307.09-13.33 306.52-14.85 306.52-16.85L306.52-16.85Q306.52-20.85 309.12-22.95 311.72-25.05 318.12-25.05L318.12-25.05Q323.37-25.05 326.12-23.55L326.12-23.55 326.37-23.55Q327.17-24.85 328.42-25.7 329.67-26.55 331.47-26.55L331.47-26.55Q332.02-26.55 332.47-26.53 332.92-26.5 333.31-26.45L333.31-26.45 333.31-20.3Q332.37-20.5 331.06-20.5L331.06-20.5Q330.02-20.5 329.06-20.3L329.06-20.3Q329.62-18.85 329.62-16.85L329.62-16.85Q329.62-12.55 327.02-10.65 324.42-8.75 318.12-8.75L318.12-8.75Q316.67-8.75 315.42-8.85 314.17-8.95 313.12-9.15L313.12-9.15Q312.92-8.75 312.92-8.2L312.92-8.2Q312.92-7.4 313.44-6.88 313.97-6.35 315.27-6.35L315.27-6.35 322.47-6.35Q327.06-6.35 329.34-4.9 331.62-3.45 331.62 0.7L331.62 0.7Q331.62 4.8 328.42 6.95 325.22 9.1 317.62 9.1L317.62 9.1Q311.37 9.1 308.52 7.43 305.67 5.75 305.67 2.55L305.67 2.55Q305.67 0.8 306.62-0.38 307.56-1.55 309.22-1.95L309.22-1.95ZM318.12-14.1L318.12-14.1Q320.47-14.1 321.42-14.68 322.37-15.25 322.37-16.75L322.37-16.75Q322.37-18.25 321.42-18.95 320.47-19.65 318.12-19.65L318.12-19.65Q315.72-19.65 314.77-18.95 313.81-18.25 313.81-16.75L313.81-16.75Q313.81-15.25 314.77-14.68 315.72-14.1 318.12-14.1ZM318.56 3.2L318.56 3.2Q321.22 3.2 322.47 2.95 323.72 2.7 324.12 2.2 324.52 1.7 324.52 0.95L324.52 0.95Q324.52 0.1 324.02-0.43 323.52-0.95 322.52-0.95L322.52-0.95 314.87-0.95Q313.87-0.95 313.37-0.43 312.87 0.1 312.87 0.95L312.87 0.95Q312.87 1.7 313.29 2.2 313.72 2.7 314.94 2.95 316.17 3.2 318.56 3.2ZM334.56-7.25L334.71-7.35Q338.61-6.25 343.36-6.25L343.36-6.25Q345.66-6.25 346.81-6.4 347.96-6.55 348.36-6.9 348.76-7.25 348.76-7.85L348.76-7.85Q348.76-8.7 348.14-8.9 347.51-9.1 345.66-9.45L345.66-9.45 341.71-10.2Q337.91-10.95 336.24-12.58 334.56-14.2 334.56-17.45L334.56-17.45Q334.56-21.85 337.19-23.45 339.81-25.05 345.56-25.05L345.56-25.05Q349.01-25.05 351.64-24.68 354.26-24.3 356.01-23.75L356.01-23.75 355.91-17.7 355.76-17.55Q351.71-18.85 346.91-18.85L346.91-18.85Q344.56-18.85 343.64-18.53 342.71-18.2 342.71-17.25L342.71-17.25Q342.71-16.75 342.99-16.45 343.26-16.15 344.26-15.88 345.26-15.6 347.41-15.2L347.41-15.2 351.06-14.5Q354.11-13.85 355.56-12.35 357.01-10.85 357.01-7.6L357.01-7.6Q357.01-4.75 355.96-3.08 354.91-1.4 352.44-0.7 349.96 0 345.61 0L345.61 0Q342.31 0 339.54-0.33 336.76-0.65 334.56-1.1L334.56-1.1 334.56-7.25Z" opacity="1" transform="matrix(1,0,0,1,0,0)" fill="#000000" class="slogan-text-1" data-fill-palette-color="secondary" id="text-1"></path></svg></g></svg></g></svg></g></svg></g><g><svg viewBox="0 0 208.38554094447514 199.58013276674305" height="199.58013276674305" width="208.38554094447514"><g><svg xmlns="http://www.w3.org/2000/svg" xmlns:xlink="http://www.w3.org/1999/xlink" version="1.1" x="0" y="0" viewBox="0.10499493894320239 4.427000095530469 99.79000506105679 95.57334145456076" enable-background="new 0 0 100 100" xml:space="preserve" id="icon-0" width="208.38554094447514" height="199.58013276674305" class="icon-icon-0" data-fill-palette-color="accent"><g fill="#ffc604" data-fill-palette-color="accent"><circle cx="12.721" cy="36.052" r="7.1" fill="#000000" data-fill-palette-color="accent"></circle><path d="M53.198 28.337L47.485 34.049A2.5 2.5 0 0 0 47.062 34.582 3.1 3.1 0 0 0 46.529 35.841C46.481 36.071 46.457 36.313 46.457 36.555 46.457 36.785 46.48 37.003 46.517 37.221L47.085 38.552C47.195 38.734 47.328 38.891 47.484 39.049H47.497A3.3 3.3 0 0 0 48.936 39.92C49.07 39.957 49.202 39.993 49.347 40.017 49.396 40.017 49.444 40.03 49.493 40.041 49.627 40.065 49.759 40.078 49.904 40.065A0.2 0.2 0 0 0 49.989 40.077H64.1A3.537 3.537 0 0 0 67.634 36.555 3.54 3.54 0 0 0 64.1 33.021H58.509L69.001 22.528 72.752 26.279 72.777 26.303C72.849 26.388 72.934 26.485 73.019 26.57L85.51 39.047A3.506 3.506 0 0 0 90.496 39.047 3.534 3.534 0 0 0 90.496 34.048L81.71 25.262A4 4 0 0 0 81.468 24.995L68.991 12.52A3.53 3.53 0 0 0 66.498 11.478C66.389 11.478 66.269 11.478 66.159 11.491H52.472V11.515A3.48 3.48 0 0 0 50.197 12.532L43.069 19.672 42.996 19.733C42.936 19.793 42.864 19.854 42.802 19.914L30.325 32.391C30.241 32.475 30.155 32.573 30.082 32.657L18.585 44.155A5 5 0 0 0 18.343 44.421L9.666 53.098A2.2 2.2 0 0 0 9.388 53.424S9.376 53.438 9.364 53.438L9.327 53.473 4.341 58.459A3.5 3.5 0 0 0 3.567 59.634L3.458 59.948A3.2 3.2 0 0 0 3.3 60.952C3.3 61.061 3.3 61.181 3.312 61.29V72.605C3.312 74.542 4.897 76.102 6.833 76.102A3.526 3.526 0 0 0 10.367 72.581V62.417L12.582 60.202V82.531L1.134 93.967A3.52 3.52 0 0 0 0.105 96.46C0.105 97.368 0.444 98.275 1.134 98.966A3.536 3.536 0 0 0 6.132 98.966L18.61 86.476A3.3 3.3 0 0 0 19.057 85.92C19.178 85.738 19.287 85.544 19.36 85.352 19.397 85.279 19.421 85.206 19.457 85.122 19.578 84.76 19.639 84.372 19.639 83.984V72.584H33.762V86.695A3.5 3.5 0 0 0 34.804 89.189 3.5 3.5 0 0 0 37.296 90.229 3.527 3.527 0 0 0 40.818 86.695V69.048A3.53 3.53 0 0 0 37.296 65.515H26.706V46.03L29.623 43.113C29.671 43.065 29.708 43.028 29.744 42.98L36.061 36.663C36.145 36.579 36.23 36.481 36.303 36.397L39.958 32.742C40.043 32.669 40.14 32.584 40.224 32.5L50.645 22.08H59.456L53.26 28.276C53.233 28.3 53.222 28.312 53.198 28.337" fill="#000000" data-fill-palette-color="accent"></path><rect x="46.458" y="46.558" width="53.437" height="53.437" fill="#000000" data-fill-palette-color="accent"></rect><circle cx="37.242" cy="11.486" r="7.1" fill="#000000" data-fill-palette-color="accent"></circle></g></svg></g></svg></g></svg></g><defs></defs></svg><rect width="395.52" height="120.19288488604589" fill="none" stroke="none" visibility="hidden"></rect></g></svg></g></svg>